 <svg version="1.0" xmlns="http://www.w3.org/2000/svg" width="700.000000pt" height="433.000000pt" viewBox="0 0 700.000000 433.000000" preserveAspectRatio="xMidYMid meet">
<metadata>
Created by potrace 1.12, written by Peter Selinger 2001-2015
</metadata>
<g transform="translate(0.000000,433.000000) scale(0.100000,-0.100000)" fill="#000000" stroke="none">
<path d="M4300 4132 c-81 -52 -110 -105 -110 -200 0 -128 15 -169 114 -306 5
-7 -4 -31 -24 -63 -18 -29 -36 -72 -41 -95 -19 -102 -2 -228 39 -285 l19 -27
-29 -24 c-52 -44 -73 -97 -72 -187 1 -69 5 -89 32 -145 18 -36 32 -73 32 -82
0 -10 12 -42 27 -72 25 -52 26 -56 10 -74 -15 -16 -177 -333 -177 -346 0 -2
-19 -35 -42 -72 -40 -64 -41 -67 -23 -80 11 -8 26 -11 35 -7 8 4 40 8 70 8 53
0 55 1 92 50 37 49 84 154 114 255 13 44 17 50 30 39 9 -7 25 -33 36 -57 12
-24 27 -46 34 -49 15 -5 63 -103 88 -179 14 -43 23 -53 61 -72 25 -12 54 -22
65 -22 18 0 19 5 14 48 -7 54 -46 127 -114 217 -26 33 -58 81 -70 106 -13 24
-31 56 -42 71 -21 31 -18 38 44 120 31 40 68 136 68 177 0 52 -60 235 -85 261
-31 33 -31 36 3 91 68 107 80 198 36 263 -31 46 -64 130 -64 164 0 13 18 47
41 75 22 29 47 67 55 86 18 44 19 285 1 321 -7 14 -33 36 -59 50 -25 14 -55
33 -65 42 -10 9 -36 20 -58 23 -33 5 -48 1 -85 -23z m120 -26 c8 -7 36 -25 62
-40 26 -14 52 -35 58 -46 15 -27 13 -253 -2 -287 -7 -15 -32 -52 -55 -81 -33
-41 -43 -61 -43 -90 0 -46 31 -132 66 -185 22 -33 25 -48 22 -86 -6 -51 -27
-103 -59 -143 -32 -39 -31 -99 2 -135 18 -19 35 -61 54 -131 25 -94 26 -106
15 -150 -7 -26 -37 -84 -67 -128 -56 -85 -63 -113 -37 -135 9 -7 29 -38 44
-70 16 -31 51 -86 77 -121 71 -94 86 -119 93 -159 l7 -37 -33 15 c-25 13 -35
25 -43 60 -13 50 -78 183 -90 183 -4 0 -20 22 -34 49 -33 59 -73 90 -92 69 -6
-7 -29 -62 -50 -123 -38 -111 -69 -174 -103 -210 -15 -16 -28 -19 -70 -17
l-52 4 19 31 c11 18 41 75 66 127 26 52 65 131 87 175 22 44 51 91 64 106 29
31 29 34 3 84 -12 22 -28 62 -36 90 -8 27 -25 70 -37 95 -22 47 -29 165 -14
221 10 33 55 79 79 79 30 0 29 15 -5 63 -42 59 -61 144 -52 233 8 74 20 103
65 153 33 37 39 59 18 67 -8 3 -35 34 -61 69 -36 49 -49 77 -56 122 -24 146
-3 222 77 273 49 31 81 33 113 6z"></path>
<path d="M4295 4000 c-18 -20 -18 -24 -2 -85 9 -35 17 -74 17 -87 0 -30 44
-119 71 -143 27 -25 38 -12 84 100 41 99 44 157 11 208 -17 25 -23 27 -91 27
-60 0 -75 -3 -90 -20z m159 -32 c9 -12 16 -38 16 -56 0 -31 -52 -175 -71 -196
-10 -11 -59 89 -59 119 0 12 -7 47 -15 79 -8 32 -13 62 -9 67 3 5 32 9 64 9
49 0 61 -4 74 -22z"></path>
<path d="M4344 3499 c-17 -18 -19 -35 -17 -130 3 -116 20 -179 48 -179 10 0
31 15 47 32 31 33 31 33 25 123 -6 101 -20 150 -45 159 -9 3 -22 8 -28 11 -6
3 -19 -4 -30 -16z m67 -81 c19 -98 5 -188 -28 -188 -35 0 -47 219 -13 240 20
13 31 -1 41 -52z"></path>
<path d="M4351 3011 c-32 -30 -55 -95 -54 -156 1 -63 19 -137 36 -146 8 -5 18
-27 22 -49 4 -25 12 -40 21 -40 24 0 62 101 75 196 15 117 1 186 -41 208 -28
14 -31 13 -59 -13z m74 -74 c8 -51 -9 -183 -29 -229 -8 -18 -15 -26 -15 -17
-1 9 -10 24 -21 34 -11 10 -20 31 -20 47 0 16 -5 39 -11 50 -14 27 8 131 34
159 27 29 54 10 62 -44z"></path>
<path d="M515 4136 c-16 -7 -39 -23 -49 -35 -11 -11 -25 -21 -32 -21 -7 0 -18
-9 -24 -20 -7 -13 -10 -330 -10 -996 0 -723 -3 -980 -11 -991 -7 -7 -10 -15
-8 -17 2 -2 38 -7 80 -11 l77 -6 6 73 c3 40 4 251 1 468 -9 683 -7 1362 4
1373 7 7 19 6 35 -2 20 -11 31 -11 69 4 75 29 80 24 98 -95 11 -70 14 -137 11
-200 -12 -209 2 -917 19 -934 5 -6 17 -2 29 9 20 18 22 18 55 1 19 -10 41 -16
51 -12 15 6 16 33 10 349 -4 188 -8 455 -10 594 -4 246 -5 253 -31 319 -42
104 -72 147 -99 140 -12 -3 -44 1 -70 9 -60 18 -161 19 -201 1z m177 -26 c40
-11 80 -17 90 -14 12 4 21 -2 28 -18 5 -13 14 -30 19 -38 5 -8 19 -40 30 -70
18 -48 22 -92 31 -370 5 -173 10 -434 10 -579 0 -247 -1 -263 -17 -255 -10 4
-35 8 -56 8 l-37 0 1 216 c1 118 -2 270 -6 338 -5 82 -3 169 5 260 12 122 11
150 -4 252 -10 63 -20 123 -23 133 -9 32 -48 39 -103 18 -28 -11 -53 -15 -56
-10 -8 13 -57 11 -77 -3 -16 -12 -17 -55 -19 -508 0 -272 1 -696 3 -942 2
-245 2 -448 -1 -451 -3 -2 -22 -2 -42 1 l-38 4 0 934 c0 649 3 935 11 939 7 5
6 12 -4 23 -20 24 -8 53 38 94 69 61 109 68 217 38z"></path>
<path d="M5810 4114 c0 -16 -132 -989 -135 -992 -1 -2 -203 64 -449 145 -326
107 -449 144 -457 136 -28 -28 34 -70 416 -282 212 -118 387 -217 390 -220 2
-4 -80 -188 -182 -410 -144 -312 -184 -407 -176 -420 6 -9 15 -16 21 -16 6 0
137 160 292 355 155 195 285 359 289 363 5 4 133 -156 286 -357 153 -202 282
-366 286 -366 4 0 11 5 14 10 4 6 -82 200 -189 431 -108 231 -196 424 -196
429 0 10 763 410 783 410 19 0 34 47 20 61 -7 7 -160 -38 -453 -131 -243 -78
-445 -139 -448 -136 -2 3 -22 227 -42 498 -21 271 -38 494 -39 496 -2 5 -31 2
-31 -4z m50 -593 c16 -223 30 -408 30 -412 0 -26 79 -6 448 111 223 71 408
128 410 126 1 -2 -66 -40 -150 -83 -542 -282 -608 -318 -608 -336 0 -10 77
-183 170 -384 94 -201 169 -367 168 -368 -2 -2 -111 140 -243 314 -132 173
-247 317 -256 319 -12 2 -100 -102 -284 -335 -306 -386 -303 -382 -282 -333
47 111 340 737 351 750 16 18 10 40 -11 40 -12 0 -747 401 -762 416 -23 22 67
-4 428 -122 231 -76 424 -134 428 -131 4 4 33 202 65 440 32 237 58 434 59
437 4 11 10 -61 39 -449z"></path>
<path d="M2666 4103 c-4 -4 -69 -8 -144 -9 -137 -2 -235 -12 -261 -28 -7 -5
-30 -3 -53 5 -39 13 -40 12 -65 -19 -14 -19 -34 -32 -47 -32 -50 0 -150 -126
-125 -156 12 -15 39 -19 39 -6 0 20 70 84 92 83 111 -3 164 -15 196 -42 24
-22 39 -27 60 -23 36 7 61 -18 42 -41 -7 -8 -19 -65 -26 -127 -16 -124 -7
-229 22 -273 9 -13 13 -28 10 -33 -3 -5 -6 -39 -8 -75 -2 -64 -1 -68 32 -102
18 -19 35 -45 37 -57 16 -110 24 -143 38 -158 8 -9 15 -32 15 -51 0 -19 9 -50
19 -70 15 -27 19 -55 19 -115 0 -44 3 -111 6 -149 6 -61 4 -75 -15 -110 -12
-22 -26 -65 -30 -95 -5 -30 -13 -89 -20 -130 -6 -41 -16 -91 -23 -110 l-12
-35 -244 -2 c-264 -2 -266 -3 -272 -58 -2 -24 2 -32 26 -43 26 -13 30 -13 38
2 8 14 67 16 618 16 568 0 610 -1 619 -17 5 -10 11 -16 13 -13 2 3 11 20 21
39 17 32 17 35 1 52 -16 17 -34 19 -202 19 l-184 0 7 23 c3 12 11 64 16 116
13 130 28 146 82 86 17 -19 34 -35 38 -35 19 0 39 36 64 110 15 44 31 80 36
80 5 0 17 13 27 28 32 52 40 43 151 -190 23 -46 47 -79 79 -105 26 -20 53 -46
61 -56 8 -11 36 -43 63 -73 43 -45 58 -55 105 -64 30 -7 93 -9 141 -7 99 6 89
-8 76 115 -6 51 -4 62 8 62 8 0 20 -11 26 -25 12 -27 42 -34 42 -11 0 8 8 13
18 12 27 -2 20 27 -8 34 -19 4 -39 32 -87 119 -34 62 -67 129 -74 149 -11 35
-66 118 -124 187 -14 17 -40 59 -57 95 -37 75 -126 196 -191 259 -33 32 -52
62 -71 115 -20 53 -41 86 -81 129 -30 31 -55 61 -55 65 0 21 -127 136 -177
160 -41 20 -66 41 -91 77 -20 27 -46 61 -59 75 -44 47 -56 87 -49 160 5 59 3
73 -19 113 -20 38 -23 55 -18 95 5 48 5 49 -27 61 -38 13 -73 14 -84 4z m65
-34 c17 -9 19 -17 14 -50 -5 -31 -2 -47 15 -77 19 -30 23 -53 24 -128 l1 -91
80 -106 c67 -88 87 -108 124 -123 45 -17 152 -113 183 -164 8 -14 36 -48 62
-77 32 -35 54 -73 68 -115 17 -49 33 -74 74 -114 66 -63 140 -162 175 -234 14
-30 60 -100 100 -155 41 -55 81 -118 88 -140 8 -22 36 -80 64 -128 27 -48 47
-90 44 -93 -3 -3 -23 13 -44 36 -21 23 -63 59 -93 80 -76 54 -116 94 -158 159
-57 89 -75 101 -157 101 -51 0 -61 4 -120 48 -35 26 -63 54 -62 62 1 8 -7 15
-18 16 -34 3 -116 24 -139 36 -11 6 -36 24 -54 39 -18 16 -39 29 -46 29 -14 0
-29 16 -116 121 -43 53 -79 89 -153 158 -24 22 -39 45 -42 70 -16 97 -43 195
-54 199 -14 5 -12 -18 13 -148 21 -105 21 -105 111 -195 44 -44 107 -112 139
-152 31 -40 67 -75 79 -79 12 -4 37 -20 55 -35 44 -39 79 -55 131 -62 24 -3
47 -11 52 -18 11 -18 -1 -119 -19 -153 -8 -17 -23 -37 -33 -45 -9 -9 -30 -51
-45 -93 -27 -80 -38 -93 -49 -58 -4 12 -22 24 -46 31 -55 17 -68 2 -80 -97 -5
-44 -14 -98 -18 -122 -6 -28 -5 -52 3 -68 l11 -24 171 0 c144 0 173 -2 178
-15 5 -13 -23 -15 -209 -15 l-213 0 20 58 c26 71 35 266 20 393 -14 108 -48
250 -75 307 -21 47 -108 140 -156 168 -33 20 -45 40 -61 102 -11 45 -63 112
-86 112 -7 0 -24 15 -37 33 -23 30 -24 37 -16 102 6 55 4 75 -7 93 -27 41 -35
129 -23 242 7 58 18 118 26 133 13 25 12 31 -1 53 -17 25 -56 40 -80 31 -7 -3
-27 8 -42 25 -26 26 -34 29 -68 23 -24 -3 -57 0 -87 10 -36 12 -53 14 -68 5
-12 -6 -21 -7 -21 -2 0 22 78 42 182 45 48 2 72 7 86 20 28 26 169 40 181 18
6 -10 14 -11 27 -6 16 8 123 30 162 34 7 0 22 -4 33 -10z m-201 -941 c11 -24
20 -55 20 -70 0 -18 11 -35 36 -55 76 -61 145 -128 164 -159 27 -42 51 -125
51 -172 0 -84 -16 -185 -31 -192 -8 -4 -29 -15 -47 -24 -27 -14 -36 -15 -53
-4 -11 7 -23 21 -26 30 -6 19 -38 33 -54 23 -6 -4 -6 4 1 22 7 17 8 56 4 103
-4 41 -7 111 -6 155 0 63 -4 86 -20 113 -11 19 -23 55 -26 81 -3 25 -12 55
-19 66 -13 22 -30 125 -19 125 3 0 15 -19 25 -42z m846 -508 c73 0 95 -13 137
-78 39 -61 104 -128 177 -182 25 -18 61 -50 81 -71 34 -36 36 -43 42 -125 l6
-87 -100 6 c-117 7 -145 20 -202 95 -21 28 -63 71 -93 97 -50 43 -104 125
-104 158 0 16 -78 147 -96 162 -7 6 -15 34 -19 63 l-7 53 62 -45 c56 -41 68
-46 116 -46z m-536 -235 c0 -82 -6 -161 -13 -190 l-13 -50 -153 -3 c-144 -2
-153 -1 -146 15 26 61 34 93 35 134 0 47 25 143 43 166 7 10 18 6 44 -17 41
-36 46 -36 115 -6 56 25 67 41 68 96 0 20 2 22 10 10 5 -8 10 -78 10 -155z
m-382 -293 c3 -10 -45 -12 -234 -10 -181 2 -238 6 -242 16 -3 10 45 12 234 10
181 -2 238 -6 242 -16z m350 1 c3 -10 -34 -13 -162 -13 -152 0 -179 4 -159 24
4 3 76 5 162 4 113 -2 155 -6 159 -15z"></path>
<path d="M2494 3989 c-5 -8 -18 -19 -28 -25 -27 -15 -31 -33 -9 -41 10 -4 23
-13 29 -21 5 -8 21 -12 35 -10 20 2 25 9 27 41 2 24 -1 37 -9 37 -6 0 -17 7
-24 17 -10 14 -14 14 -21 2z"></path>
<path d="M1944 3508 c-14 -15 -24 -43 -28 -83 -4 -32 -10 -62 -15 -65 -14 -9
-384 -574 -384 -587 0 -10 -53 -13 -229 -13 l-228 0 0 -150 0 -150 560 0 560
0 0 150 0 150 -261 0 c-205 0 -260 3 -256 13 2 6 77 124 165 262 l160 249 44
-3 c52 -3 71 14 86 74 15 61 23 139 14 151 -4 7 -43 15 -87 19 -76 6 -81 5
-101 -17z m162 -22 c4 -3 -17 -127 -25 -149 -12 -31 -37 -34 -102 -14 l-41 12
7 70 c8 88 18 96 99 88 34 -3 62 -6 62 -7z m-160 -192 c19 7 34 33 -163 -276
l-165 -258 -39 0 c-34 0 -39 2 -31 16 5 9 85 132 178 274 148 225 171 256 187
248 10 -5 25 -7 33 -4z m214 -684 l0 -120 -535 0 -535 0 0 120 0 120 535 0
535 0 0 -120z"></path>
<path d="M247 1763 c-4 -3 -7 -23 -7 -44 l0 -38 121 -3 121 -3 34 -81 c79
-192 109 -374 101 -614 -6 -180 -23 -269 -78 -434 l-33 -96 -118 -1 c-65 -1
-124 -2 -130 -3 -8 0 -14 -19 -16 -44 l-3 -42 3231 0 3231 0 -3 43 -3 42 -101
3 -101 3 -22 57 c-41 104 -80 277 -92 405 -21 217 15 461 98 673 l37 94 94 0
93 0 -3 43 -3 42 -3221 3 c-1771 1 -3224 -1 -3227 -5z m6123 -149 c-160 -355
-171 -753 -30 -1088 17 -39 30 -73 30 -76 0 -3 -1291 -4 -2870 -2 -1578 1
-2870 4 -2870 6 0 2 15 44 34 93 65 171 89 303 88 493 0 109 -5 170 -21 246
-22 105 -78 280 -112 346 -10 20 -19 40 -19 43 0 3 1305 5 2900 5 l2899 0 -29
-66z"></path>
</g>
</svg>